<?xml version="1.0" encoding="utf-8"?>
<!-- Generator: Adobe Illustrator 25.4.1, SVG Export Plug-In . SVG Version: 6.00 Build 0)  -->
<svg version="1.1" id="Ebene_1" xmlns="http://www.w3.org/2000/svg" xmlns:xlink="http://www.w3.org/1999/xlink" x="0px" y="0px"
	 viewBox="0 0 99.21 99.21" style="enable-background:new 0 0 99.21 99.21;" xml:space="preserve">
<style type="text/css">
	.st0{fill:none;stroke:#936037;stroke-width:1.5;stroke-miterlimit:10;}
	.st1{fill:#936037;}
	.st2{fill:none;stroke:#936037;stroke-width:1.5;stroke-linecap:round;stroke-miterlimit:10;}
	.st3{fill:#936037;stroke:#936037;stroke-width:1.5;stroke-miterlimit:10;}
	.st4{fill:#FFFFFF;}
	.st5{fill:#FFFFFF;stroke:#936037;stroke-width:1.5;stroke-miterlimit:10;}
	.st6{fill:none;stroke:#936037;stroke-width:4;stroke-miterlimit:10;}
	.st7{fill:none;stroke:#36A9E1;stroke-width:1.5;stroke-miterlimit:10;}
	.st8{fill:none;stroke:#36A9E1;stroke-width:3;stroke-miterlimit:10;}
	.st9{fill:none;stroke:#FFFFFF;stroke-width:2;stroke-linecap:round;stroke-miterlimit:10;}
	.st10{fill:#FFFFFF;stroke:#936037;stroke-width:3;stroke-miterlimit:10;}
	.st11{fill:#FFFFFF;stroke:#FFFFFF;stroke-width:0.75;stroke-miterlimit:10;}
	.st12{fill:#FFFFFF;stroke:#FFFFFF;stroke-width:0.75;stroke-linecap:round;stroke-miterlimit:10;}
	.st13{fill:#FFFFFF;stroke:#936037;stroke-width:0.75;stroke-miterlimit:10;}
	.st14{fill:#FFFFFF;stroke:#936037;stroke-width:0.75;stroke-linecap:round;stroke-miterlimit:10;}
	.st15{fill:none;stroke:#36A9E1;stroke-width:1.5;stroke-linecap:round;stroke-miterlimit:10;}
	.st16{fill:#FFFFFF;stroke:#FFFFFF;stroke-width:3;stroke-miterlimit:10;}
	.st17{fill:none;stroke:#00A19A;stroke-width:1.5;stroke-miterlimit:10;}
	.st18{fill:#FFFFFF;stroke:#936037;stroke-width:1.5;stroke-linecap:round;stroke-miterlimit:10;}
	.st19{fill:#FFFFFF;stroke:#936037;stroke-width:2;stroke-miterlimit:10;}
	.st20{fill:#936037;stroke:#936037;stroke-width:3;stroke-miterlimit:10;}
	.st21{fill:none;stroke:#FFFFFF;stroke-width:1.5;stroke-linecap:round;stroke-miterlimit:10;}
	.st22{clip-path:url(#SVGID_00000009585612504553246020000009059235448652145035_);}
	.st23{fill:none;stroke:#936037;stroke-width:0.8992;stroke-miterlimit:10;}
	.st24{fill:none;stroke:#936037;stroke-width:2.3732;stroke-miterlimit:10;}
	.st25{fill:none;stroke:#936037;stroke-width:1.9721;stroke-miterlimit:10;}
	.st26{fill:none;stroke:#936037;stroke-width:2.8173;stroke-miterlimit:10;}
	.st27{fill:none;stroke:#936037;stroke-width:2.5793;stroke-miterlimit:10;}
	.st28{fill:none;stroke:#936037;stroke-width:1.9198;stroke-miterlimit:10;}
	.st29{fill:none;stroke:#936037;stroke-width:2.3433;stroke-miterlimit:10;}
	.st30{fill:none;stroke:#936037;stroke-width:1.8901;stroke-miterlimit:10;}
	.st31{fill:none;stroke:#936037;stroke-width:1.3795;stroke-miterlimit:10;}
	.st32{fill:none;stroke:#936037;stroke-width:1.3226;stroke-miterlimit:10;}
	.st33{fill:#936037;stroke:#936037;stroke-width:0.75;stroke-miterlimit:10;}
	.st34{fill:#936037;stroke:#936037;stroke-width:0.75;stroke-linecap:round;stroke-miterlimit:10;}
	.st35{fill:none;stroke:#936037;stroke-width:1.555;stroke-miterlimit:10;}
</style>
<g>
	<path class="st2" d="M74.57,41.86C71.6,50.44,64.53,57.1,55.71,59.5c-2.32,0.63-4.75,0.97-7.27,0.97"/>
	<circle class="st1" cx="75.27" cy="39.35" r="0.95"/>
	<polygon class="st0" points="48.44,12.7 54.25,24.48 67.26,26.37 57.85,35.55 60.07,48.5 48.44,42.38 36.81,48.5 39.03,35.55 
		29.62,26.37 42.62,24.48 	"/>
	<path class="st0" d="M44.28,64.03c-6.15-0.81-11.73-3.39-16.23-7.22L14.69,87.77l15.84-4.46l7.57,14.56L48.48,73.8v-0.03
		L44.28,64.03z"/>
	<path class="st0" d="M68.9,56.75c-4.48,3.84-10.06,6.44-16.19,7.27c-1.38,0.19-2.79,0.29-4.22,0.29c-0.02,0-0.03,0-0.05,0
		c-1.41,0-2.8-0.1-4.16-0.28l4.2,9.74v0.03l0.01-0.01l10.39,24.09l7.57-14.56l15.84,4.46L68.9,56.75z"/>
	<path class="st2" d="M48.48,1.34c-0.02,0-0.03,0-0.05,0c-17.39,0-31.49,14.1-31.49,31.49c0,9.61,4.31,18.21,11.1,23.99
		c4.5,3.83,10.08,6.41,16.23,7.22c1.36,0.18,2.75,0.28,4.16,0.28c0.02,0,0.03,0,0.05,0c1.43,0,2.84-0.11,4.22-0.29
		c6.14-0.83,11.71-3.43,16.19-7.27c6.75-5.77,11.03-14.35,11.03-23.92C79.92,15.45,65.85,1.37,48.48,1.34z"/>
</g>
</svg>
